# Blender v2.80 (sub 75) OBJ File: 'Turbine.blend'
# www.blender.org
mtllib TurbineBase.mtl
o Cylinder_Cylinder.001
v -0.212415 3.431066 -0.001572
v -0.212415 3.508602 -0.001572
v -0.212358 3.455026 -0.075312
v 0.144169 3.431066 -0.001572
v 0.144169 3.455026 -0.075312
v 0.144169 3.508602 -0.001572
v -0.212414 3.427905 -0.002598
v -0.212356 3.451865 -0.076339
v -0.212356 3.365178 -0.048173
v 0.144169 3.427905 -0.002598
v 0.144169 3.365178 -0.048173
v 0.144169 3.451865 -0.076339
v -0.212415 3.425952 0.000090
v -0.212358 3.363224 -0.045484
v -0.212415 3.363224 0.045664
v 0.144169 3.425952 0.000090
v 0.144169 3.363224 0.045664
v 0.144169 3.363224 -0.045484
v -0.212416 3.427905 0.002779
v -0.212416 3.365178 0.048353
v -0.212416 3.451865 0.076520
v 0.144169 3.427905 0.002779
v 0.144169 3.451865 0.076520
v 0.144169 3.365178 0.048353
v -0.212416 3.455026 0.075493
v -0.212416 3.508602 0.001752
v -0.212416 3.431066 0.001752
v 0.144169 3.431066 0.001752
v 0.144169 3.508602 0.001752
v 0.144169 3.455026 0.075493
v -0.210754 3.510886 -0.001254
v 0.142508 3.510886 -0.001254
v 0.142508 3.455430 -0.077583
v -0.210694 3.455430 -0.077583
v -0.210693 3.452873 -0.078414
v 0.142508 3.452873 -0.078414
v 0.142508 3.363143 -0.049259
v -0.210693 3.363143 -0.049259
v -0.210694 3.361563 -0.047084
v 0.142508 3.361563 -0.047084
v 0.142508 3.361563 0.047264
v -0.210754 3.361563 0.047264
v -0.210755 3.363143 0.049439
v 0.142508 3.363143 0.049439
v 0.142508 3.452873 0.078594
v -0.210755 3.452873 0.078594
v 0.142508 3.510886 0.001434
v -0.210755 3.510886 0.001434
v -0.210755 3.455430 0.077763
v 0.142508 3.455430 0.077763
v -0.004775 -0.017071 -0.080715
v -0.004775 3.389778 -0.044063
v 0.052363 -0.017071 -0.057047
v 0.026446 3.389778 -0.031131
v 0.076030 -0.017071 0.000090
v 0.039378 3.389778 0.000090
v 0.052363 -0.017071 0.057228
v 0.026446 3.389778 0.031311
v -0.004775 -0.017071 0.080895
v -0.004775 3.389778 0.044243
v -0.061912 -0.017071 0.057228
v -0.035996 3.389778 0.031311
v -0.085579 -0.017071 0.000090
v -0.048928 3.389778 0.000090
v -0.061912 -0.017071 -0.057047
v -0.035996 3.389778 -0.031131
v -0.212415 3.508602 -0.001572
v -0.212358 3.455026 -0.075312
v 0.144169 3.455026 -0.075312
v 0.144169 3.508602 -0.001572
v -0.212356 3.451865 -0.076339
v -0.212356 3.451865 -0.076339
v -0.212356 3.365178 -0.048173
v 0.144169 3.365178 -0.048173
v 0.144169 3.451865 -0.076339
v 0.144169 3.451865 -0.076339
v -0.212358 3.363224 -0.045484
v -0.212415 3.363224 0.045664
v 0.144169 3.363224 0.045664
v 0.144169 3.363224 -0.045484
v -0.212416 3.365178 0.048353
v -0.212416 3.451865 0.076520
v -0.212416 3.451865 0.076520
v 0.144169 3.451865 0.076520
v 0.144169 3.451865 0.076520
v 0.144169 3.365178 0.048353
v -0.212416 3.455026 0.075493
v -0.212416 3.508602 0.001752
v 0.144169 3.508602 0.001752
v 0.144169 3.455026 0.075493
v -0.210693 3.452873 -0.078414
v 0.142508 3.452873 -0.078414
v 0.142508 3.452873 0.078594
v -0.210755 3.452873 0.078594
v -0.004775 -0.017071 -0.080715
v 0.052363 -0.017071 -0.057047
v 0.026446 3.389778 -0.031131
v -0.004775 3.389778 -0.044063
v 0.076030 -0.017071 0.000090
v 0.039378 3.389778 0.000090
v 0.052363 -0.017071 0.057228
v 0.026446 3.389778 0.031311
v -0.004775 -0.017071 0.080895
v -0.004775 3.389778 0.044243
v -0.061912 -0.017071 0.057228
v -0.035996 3.389778 0.031311
v -0.085579 -0.017071 0.000090
v -0.048928 3.389778 0.000090
v -0.061912 -0.017071 -0.057047
v -0.035996 3.389778 -0.031131
vt 0.945915 0.281506
vt 0.948508 0.419587
vt 0.940118 0.419587
vt 0.930185 0.563892
vt 0.924389 0.425810
vt 0.932778 0.425810
vt 0.946257 0.279583
vt 0.955635 0.332325
vt 0.948850 0.417664
vt 0.939907 0.513072
vt 0.930527 0.565815
vt 0.933120 0.427733
vt 0.955847 0.337360
vt 0.955847 0.508038
vt 0.949061 0.422699
vt 0.940118 0.337360
vt 0.940118 0.508038
vt 0.933331 0.422699
vt 0.955635 0.513073
vt 0.946255 0.565815
vt 0.948850 0.427733
vt 0.930527 0.279583
vt 0.939907 0.332325
vt 0.933120 0.417664
vt 0.940118 0.425810
vt 0.948508 0.425810
vt 0.945913 0.563892
vt 0.924389 0.419587
vt 0.930185 0.281506
vt 0.932778 0.419587
vt 0.340667 0.664605
vt 0.340667 0.003224
vt 0.505409 0.003114
vt 0.505409 0.664605
vt 0.275947 0.664604
vt 0.275947 0.003226
vt 0.338873 0.003226
vt 0.338873 0.664605
vt 0.067620 0.664604
vt 0.067620 0.003113
vt 0.271253 0.003224
vt 0.271253 0.664604
vt 0.000000 0.664605
vt 0.000000 0.003112
vt 0.062926 0.003112
vt 0.062926 0.664604
vt 0.675954 0.003112
vt 0.675954 0.664605
vt 0.511212 0.664605
vt 0.511212 0.003112
vt 0.345568 0.000109
vt 0.504724 0.000002
vt 0.345568 0.667716
vt 0.504724 0.667716
vt 0.273603 0.000112
vt 0.334396 0.000112
vt 0.273603 0.667716
vt 0.334396 0.667716
vt 0.071073 0.000002
vt 0.267800 0.000110
vt 0.071073 0.667716
vt 0.267800 0.667716
vt 0.004478 0.000000
vt 0.065270 0.000000
vt 0.004478 0.667716
vt 0.065270 0.667716
vt 0.671053 0.000000
vt 0.511897 0.000000
vt 0.671053 0.667716
vt 0.511897 0.667716
vt 0.338873 0.664605
vt 0.338873 0.003226
vt 0.677747 0.664605
vt 0.677747 0.003112
vt 0.343351 0.000112
vt 0.673269 0.000000
vt 0.343351 0.667716
vt 0.673269 0.667716
vt 0.095554 0.667716
vt 0.095554 0.994921
vt 0.043342 1.000000
vt 0.000000 0.677012
vt 0.924389 0.280830
vt 0.868452 0.601994
vt 0.801068 0.601313
vt 0.801068 0.279583
vt 0.733683 0.601994
vt 0.677747 0.280830
vt 0.457210 0.677012
vt 0.413868 1.000000
vt 0.361656 0.994921
vt 0.361656 0.667716
vt 0.288955 1.000000
vt 0.228605 0.677012
vt 0.924389 0.603126
vt 0.868434 0.924186
vt 0.801060 0.923568
vt 0.801088 0.601994
vt 0.457210 0.775740
vt 0.457210 0.712461
vt 0.508784 0.667716
vt 0.581721 0.667716
vt 0.633295 0.712461
vt 0.633295 0.775740
vt 0.581721 0.820485
vt 0.508784 0.820485
vt 0.733664 0.924186
vt 0.677747 0.603126
vt 0.228605 0.677012
vt 0.168256 1.000000
vt 1.000000 0.197695
vt 0.905614 0.279583
vt 0.772133 0.279583
vt 0.677747 0.197695
vt 0.677747 0.081888
vt 0.772133 0.000000
vt 0.905614 0.000000
vt 1.000000 0.081888
vn -1.0000 -0.0001 -0.0008
vn -1.0000 -0.0001 -0.0006
vn -1.0000 0.0000 -0.0005
vn 1.0000 0.0000 0.0000
vn -1.0000 -0.0002 -0.0008
vn -1.0000 -0.0003 -0.0008
vn -1.0000 -0.0002 -0.0007
vn -1.0000 -0.0004 -0.0007
vn -1.0000 -0.0003 -0.0004
vn -1.0000 -0.0003 -0.0005
vn -1.0000 -0.0001 -0.0002
vn -1.0000 0.0000 0.0000
vn -1.0000 0.0000 -0.0002
vn 0.4080 0.5215 -0.7494
vn -0.4078 0.5214 -0.7495
vn -0.4080 0.8738 -0.2646
vn 0.4080 0.8738 -0.2644
vn 0.4080 -0.5515 -0.7276
vn -0.4078 -0.5515 -0.7277
vn -0.2913 -0.2956 -0.9098
vn 0.2914 -0.2956 -0.9098
vn 0.4080 -0.8624 0.2997
vn -0.4080 -0.8624 0.2995
vn -0.4078 -0.8624 -0.2999
vn 0.4080 -0.8624 -0.2997
vn 0.2914 -0.2956 0.9098
vn -0.2914 -0.2956 0.9098
vn -0.4081 -0.5516 0.7275
vn 0.4080 -0.5515 0.7275
vn -0.4080 0.5215 0.7494
vn 0.4080 0.5215 0.7493
vn 0.4080 0.8738 0.2644
vn -0.4081 0.8738 0.2643
vn -0.7648 0.4244 -0.4847
vn -0.7649 0.5917 -0.2545
vn 0.7650 0.4245 -0.4842
vn 0.7650 0.5917 -0.2541
vn -0.7647 -0.3295 -0.5538
vn -0.7068 -0.2186 -0.6728
vn 0.7650 -0.3294 -0.5534
vn 0.7071 -0.2185 -0.6725
vn -0.7649 -0.6283 0.1419
vn -0.7648 -0.6283 -0.1426
vn 0.7650 -0.6281 0.1422
vn 0.7650 -0.6281 -0.1422
vn -0.7071 -0.2185 0.6725
vn -0.7650 -0.3294 0.5533
vn 0.7071 -0.2185 0.6725
vn 0.7650 -0.3294 0.5534
vn -0.7650 0.4245 0.4842
vn -0.7650 0.5918 0.2540
vn 0.7650 0.4245 0.4842
vn 0.7650 0.5917 0.2541
vn 0.4693 0.2729 -0.8398
vn -0.4690 0.2727 -0.8400
vn 0.4693 0.2729 0.8398
vn -0.4693 0.2729 0.8398
vn -0.8084 0.1816 -0.5598
vn -0.8087 0.1818 0.5594
vn 0.8087 0.1818 -0.5594
vn 0.8087 0.1818 0.5593
vn 0.0000 0.0107 -0.9999
vn 0.7071 0.0107 -0.7071
vn 0.9999 0.0107 0.0000
vn 0.7071 0.0107 0.7071
vn 0.0000 0.0107 0.9999
vn -0.7071 0.0107 0.7071
vn -0.9999 0.0107 0.0000
vn 0.0000 1.0000 0.0000
vn -0.7071 0.0107 -0.7071
vn 0.0000 -1.0000 0.0000
usemtl Blades
s 1
f 68/1/1 1/2/2 67/3/3
f 69/4/4 70/5/4 4/6/4
f 71/7/5 73/8/6 7/9/7
f 74/10/4 75/11/4 10/12/4
f 77/13/8 78/14/9 13/15/10
f 79/16/4 80/17/4 16/18/4
f 81/19/11 82/20/12 19/21/11
f 84/22/4 86/23/4 22/24/4
f 88/25/13 27/26/13 87/27/12
f 89/28/4 90/29/4 28/30/4
f 33/31/14 34/32/15 31/33/16 32/34/17
f 37/35/18 38/36/19 91/37/20 92/38/21
f 41/39/22 42/40/23 39/41/24 40/42/25
f 93/43/26 94/44/27 43/45/28 44/46/29
f 49/47/30 50/48/31 47/49/32 48/50/33
f 1/2/2 27/26/13 88/25/13 67/3/3
f 7/9/7 1/2/2 68/1/1 71/7/5
f 34/32/15 3/51/34 2/52/35 31/33/16
f 4/6/4 10/12/4 75/11/4 69/4/4
f 28/30/4 4/6/4 70/5/4 89/28/4
f 5/53/36 33/31/14 32/34/17 6/54/37
f 13/15/10 7/9/7 73/8/6 77/13/8
f 38/36/19 9/55/38 72/56/39 91/37/20
f 10/12/4 16/18/4 80/17/4 74/10/4
f 11/57/40 37/35/18 92/38/21 76/58/41
f 19/21/11 13/15/10 78/14/9 81/19/11
f 42/40/23 15/59/42 14/60/43 39/41/24
f 16/18/4 22/24/4 86/23/4 79/16/4
f 17/61/44 41/39/22 40/42/25 18/62/45
f 27/26/13 19/21/11 82/20/12 87/27/12
f 94/44/27 83/63/46 20/64/47 43/45/28
f 22/24/4 28/30/4 90/29/4 84/22/4
f 85/65/48 93/43/26 44/46/29 24/66/49
f 25/67/50 49/47/30 48/50/33 26/68/51
f 50/48/31 30/69/52 29/70/53 47/49/32
f 47/49/32 32/34/17 31/33/16 48/50/33
f 33/31/14 36/71/54 35/72/55 34/32/15
f 37/35/18 40/42/25 39/41/24 38/36/19
f 41/39/22 44/46/29 43/45/28 42/40/23
f 45/73/56 50/48/31 49/47/30 46/74/57
f 26/68/51 48/50/33 31/33/16 2/52/35
f 3/51/34 34/32/15 35/72/55 8/75/58
f 9/55/38 38/36/19 39/41/24 14/60/43
f 15/59/42 42/40/23 43/45/28 20/64/47
f 21/76/59 46/74/57 49/47/30 25/67/50
f 6/54/37 32/34/17 47/49/32 29/70/53
f 12/77/60 36/71/54 33/31/14 5/53/36
f 18/62/45 40/42/25 37/35/18 11/57/40
f 24/66/49 44/46/29 41/39/22 17/61/44
f 30/69/52 50/48/31 45/73/56 23/78/61
f 1/2/2 13/15/10 19/21/11 27/26/13
f 16/18/4 4/6/4 28/30/4 22/24/4
f 13/15/10 1/2/2 7/9/7
f 4/6/4 16/18/4 10/12/4
f 95/79/62 98/80/62 97/81/63 96/82/63
f 96/83/63 97/84/63 100/85/64 99/86/64
f 99/86/64 100/85/64 102/87/65 101/88/65
f 101/89/65 102/90/65 104/91/66 103/92/66
f 103/92/66 104/91/66 106/93/67 105/94/67
f 105/95/67 106/96/67 108/97/68 107/98/68
f 54/99/69 52/100/69 110/101/69 64/102/69 62/103/69 60/104/69 58/105/69 56/106/69
f 107/98/68 108/97/68 66/107/70 109/108/70
f 109/109/70 66/110/70 98/80/62 95/79/62
f 51/111/71 53/112/71 55/113/71 57/114/71 59/115/71 61/116/71 63/117/71 65/118/71
